<svg width="240" height="240" viewBox="0 0 240 240" fill="none" xmlns="http://www.w3.org/2000/svg">
<path d="M119.726 0.00036296C92.0585 0.0585226 65.2608 9.67928 43.8718 27.2333C22.4828 44.7874 7.81715 69.1958 2.35841 96.3249C-3.10032 123.454 0.983467 151.636 13.9181 176.099C26.8527 200.562 47.8432 219.802 73.3348 230.56C73.4954 230.656 73.6713 230.724 73.8547 230.76C90.2514 237.597 107.961 240.707 125.706 239.865C143.451 239.023 160.787 234.251 176.463 225.893C192.139 217.534 205.764 205.798 216.353 191.533C226.943 177.267 234.233 160.827 237.697 143.401C241.161 125.974 240.713 107.995 236.384 90.7632C232.056 73.5309 223.956 57.475 212.669 43.7547C201.382 30.0345 187.189 18.9924 171.116 11.4257C155.043 3.85905 137.491 -0.0433342 119.726 0.00036296ZM119.726 3.28036C150.126 3.34324 179.303 15.2644 201.051 36.5088C222.8 57.7532 235.405 86.645 236.186 117.04H169.857C169.857 116.1 169.658 115.18 169.518 114.26L196.413 109.08C196.628 109.044 196.834 108.965 197.018 108.848C197.203 108.731 197.362 108.578 197.487 108.398C197.611 108.219 197.699 108.016 197.744 107.802C197.789 107.588 197.791 107.368 197.75 107.153C197.708 106.939 197.625 106.734 197.503 106.553C197.382 106.371 197.226 106.215 197.043 106.095C196.861 105.974 196.656 105.892 196.442 105.851C196.227 105.811 196.006 105.814 195.793 105.86L168.878 111.04C168.471 109.218 167.956 107.422 167.338 105.66L192.413 96.4404C192.805 96.2797 193.12 95.9737 193.291 95.5864C193.462 95.1991 193.477 94.7605 193.332 94.3626C193.187 93.9646 192.895 93.638 192.515 93.4512C192.135 93.2644 191.697 93.2319 191.294 93.3604L166.158 102.6C165.476 100.994 164.709 99.4246 163.859 97.9004L187.714 84.5004C187.904 84.3983 188.071 84.259 188.205 84.091C188.339 83.9229 188.438 83.7295 188.496 83.5222C188.554 83.3149 188.57 83.0981 188.542 82.8848C188.514 82.6714 188.443 82.4658 188.334 82.2804C188.232 82.0912 188.093 81.9244 187.925 81.7896C187.758 81.6547 187.565 81.5546 187.358 81.495C187.152 81.4355 186.935 81.4176 186.722 81.4426C186.508 81.4675 186.302 81.5348 186.115 81.6404L162.119 95.1804C161.141 93.6562 160.079 92.1873 158.939 90.7804L179.876 73.0404C180.145 72.7409 180.294 72.3529 180.296 71.9502C180.297 71.5476 180.151 71.1584 179.884 70.8569C179.617 70.5555 179.249 70.3627 178.849 70.3154C178.449 70.2681 178.046 70.3695 177.716 70.6004L156.78 88.3004C155.563 86.9771 154.275 85.7218 152.92 84.5404L169.957 63.7404C170.226 63.3978 170.35 62.9646 170.306 62.5319C170.261 62.0992 170.05 61.7008 169.717 61.4204C169.38 61.1484 168.949 61.021 168.518 61.066C168.087 61.111 167.692 61.3246 167.418 61.6604L150.401 82.4604C148.981 81.3804 147.522 80.4604 146.002 79.4404L159.719 55.7804C159.937 55.4037 159.996 54.9562 159.883 54.5361C159.771 54.1161 159.496 53.7579 159.119 53.5404C158.742 53.3282 158.296 53.2723 157.877 53.3844C157.459 53.4965 157.101 53.7678 156.88 54.1404L143.282 77.8204C141.803 77.0404 140.283 76.3404 138.723 75.7004L147.921 49.9804C148.013 49.774 148.062 49.551 148.063 49.3251C148.065 49.0993 148.02 48.8755 147.931 48.6679C147.842 48.4602 147.711 48.2732 147.547 48.1184C147.382 47.9637 147.188 47.8446 146.975 47.7687C146.762 47.6927 146.536 47.6615 146.311 47.677C146.086 47.6925 145.866 47.7543 145.666 47.8587C145.466 47.9631 145.289 48.1077 145.147 48.2835C145.005 48.4593 144.902 48.6625 144.842 48.8804L135.644 74.5804C133.988 74.0427 132.306 73.5888 130.605 73.2204L135.284 46.4204C135.341 46.2008 135.353 45.9716 135.317 45.7474C135.282 45.5232 135.2 45.3088 135.077 45.1178C134.955 44.9268 134.794 44.7633 134.604 44.6378C134.415 44.5123 134.202 44.4274 133.979 44.3885C133.755 44.3496 133.526 44.3575 133.305 44.4118C133.085 44.4662 132.878 44.5656 132.698 44.704C132.518 44.8424 132.369 45.0166 132.26 45.2156C132.151 45.4147 132.084 45.6342 132.064 45.8604L127.385 72.6204C125.504 72.3421 123.607 72.1751 121.706 72.1204V44.7004C121.706 44.2654 121.533 43.8483 121.226 43.5407C120.918 43.2332 120.501 43.0604 120.066 43.0604C119.632 43.0604 119.214 43.2332 118.907 43.5407C118.599 43.8483 118.427 44.2654 118.427 44.7004V72.1204C116.525 72.1751 114.629 72.3421 112.748 72.6204L108.069 45.8604C108.049 45.6342 107.982 45.4147 107.873 45.2156C107.764 45.0166 107.614 44.8424 107.435 44.704C107.255 44.5656 107.048 44.4662 106.828 44.4118C106.607 44.3575 106.378 44.3496 106.154 44.3885C105.931 44.4274 105.717 44.5123 105.528 44.6378C105.339 44.7633 105.178 44.9268 105.056 45.1178C104.933 45.3088 104.851 45.5232 104.816 45.7474C104.78 45.9716 104.792 46.2008 104.849 46.4204L109.508 73.2204C107.809 73.6004 106.129 74.0404 104.489 74.5804L95.2909 48.8804C95.2313 48.6625 95.1273 48.4593 94.9856 48.2835C94.8438 48.1077 94.6672 47.9631 94.467 47.8587C94.2667 47.7543 94.0471 47.6925 93.8218 47.677C93.5965 47.6615 93.3704 47.6927 93.1578 47.7687C92.9451 47.8446 92.7505 47.9637 92.586 48.1184C92.4215 48.2732 92.2907 48.4602 92.2019 48.6679C92.113 48.8755 92.0679 49.0993 92.0696 49.3251C92.0712 49.551 92.1195 49.774 92.2114 49.9804L101.41 75.7004C99.8501 76.3404 98.3303 77.0404 96.8506 77.8204L83.2531 54.1404C83.0356 53.7611 82.6765 53.4838 82.2546 53.3694C81.8327 53.255 81.3827 53.3129 81.0035 53.5304C80.6243 53.7478 80.347 54.1071 80.2326 54.529C80.1182 54.951 80.1761 55.4011 80.3936 55.7804L93.9911 79.4404C92.4714 80.3804 91.0116 81.4404 89.5919 82.4604L72.5749 61.6604C72.461 61.4505 72.3026 61.268 72.1109 61.1257C71.9191 60.9834 71.6986 60.8847 71.4648 60.8365C71.2309 60.7883 70.9894 60.7918 70.757 60.8467C70.5246 60.9015 70.3071 61.0065 70.1196 61.1543C69.932 61.302 69.7789 61.4889 69.671 61.702C69.5632 61.9151 69.5032 62.1491 69.4952 62.3878C69.4871 62.6264 69.5313 62.864 69.6246 63.0838C69.718 63.3036 69.8582 63.5004 70.0355 63.6604L87.0723 84.4604C85.7178 85.6418 84.4294 86.8971 83.213 88.2204L62.2568 70.5204C62.0934 70.3809 61.9039 70.2754 61.6993 70.2098C61.4947 70.1443 61.2792 70.1202 61.0651 70.1388C60.8511 70.1574 60.643 70.2184 60.4528 70.3183C60.2626 70.4181 60.0941 70.5548 59.9572 70.7204C59.8172 70.8854 59.7112 71.0766 59.6455 71.2829C59.5797 71.4891 59.5555 71.7063 59.5741 71.922C59.5927 72.1377 59.6538 72.3475 59.7539 72.5395C59.8539 72.7314 59.991 72.9017 60.1572 73.0404L81.0534 90.7004C79.9133 92.1073 78.852 93.5762 77.874 95.1004L53.7383 81.6404C53.3558 81.4316 52.9065 81.3817 52.4875 81.5014C52.0684 81.6212 51.7133 81.901 51.4987 82.2804C51.2893 82.6576 51.237 83.1021 51.353 83.5176C51.4691 83.9332 51.7441 84.2863 52.1186 84.5004L76.1143 98.0004C75.2641 99.5247 74.4964 101.094 73.8147 102.7L48.6792 93.4604C48.4748 93.3765 48.2557 93.3348 48.0348 93.3378C47.8139 93.3409 47.5958 93.3885 47.3938 93.4778C47.1917 93.5672 47.0099 93.6965 46.8591 93.8579C46.7082 94.0193 46.5915 94.2096 46.516 94.4172C46.4405 94.6249 46.4078 94.8457 46.4197 95.0663C46.4316 95.2869 46.488 95.5029 46.5854 95.7011C46.6829 95.8994 46.8194 96.076 46.9867 96.2202C47.1541 96.3644 47.3489 96.4733 47.5594 96.5404L72.635 105.76C72.0099 107.522 71.4891 109.318 71.0752 111.14L44.1601 105.96C43.7377 105.889 43.304 105.986 42.9521 106.23C42.6001 106.474 42.3578 106.847 42.2768 107.267C42.1958 107.688 42.2826 108.124 42.5187 108.481C42.7548 108.839 43.1215 109.09 43.5402 109.18L70.4553 114.36C70.3153 115.28 70.1954 116.24 70.0954 117.18H3.54735C3.38881 117.15 3.22599 117.15 3.06745 117.18C3.81351 86.7259 16.4304 57.769 38.2256 36.4892C60.0209 15.2095 89.2683 3.29209 119.726 3.28036ZM73.7347 227.04C52.8466 218.059 35.0336 203.175 22.4807 184.214C9.9278 165.254 3.18085 143.041 3.06745 120.3C3.2463 120.329 3.42849 120.329 3.60734 120.3H69.9354C70.2626 122.795 71.328 125.136 72.9949 127.02C74.5757 128.761 75.4515 131.029 75.4515 133.38C75.4515 135.732 74.5757 137.999 72.9949 139.74C70.9726 142.052 69.858 145.019 69.858 148.09C69.858 151.162 70.9726 154.129 72.9949 156.44C74.5785 158.176 75.4565 160.441 75.4565 162.79C75.4565 165.14 74.5785 167.405 72.9949 169.14C70.9726 171.452 69.858 174.419 69.858 177.49C69.858 180.562 70.9726 183.529 72.9949 185.84C74.5785 187.576 75.4565 189.841 75.4565 192.19C75.4565 194.54 74.5785 196.805 72.9949 198.54C70.9726 200.852 69.858 203.819 69.858 206.89C69.858 209.962 70.9726 212.929 72.9949 215.24C74.5943 216.962 75.4742 219.23 75.4544 221.58C75.6082 223.554 74.9919 225.511 73.7347 227.04ZM80.9334 229.86C79.5536 229.36 78.1939 228.84 76.9341 228.32C78.2634 226.362 78.9228 224.025 78.8138 221.66C78.8464 218.586 77.7263 215.61 75.6743 213.32C74.0907 211.585 73.2129 209.32 73.2129 206.97C73.2129 204.621 74.0907 202.356 75.6743 200.62C77.6966 198.309 78.8113 195.342 78.8113 192.27C78.8113 189.199 77.6966 186.232 75.6743 183.92C74.0907 182.185 73.2129 179.92 73.2129 177.57C73.2129 175.221 74.0907 172.956 75.6743 171.22C77.6966 168.909 78.8113 165.942 78.8113 162.87C78.8113 159.799 77.6966 156.832 75.6743 154.52C74.0936 152.779 73.2179 150.512 73.2179 148.16C73.2179 145.809 74.0936 143.541 75.6743 141.8C77.6991 139.494 78.8157 136.53 78.8157 133.46C78.8157 130.391 77.6991 127.427 75.6743 125.12C74.4835 123.779 73.6755 122.142 73.3348 120.38H79.5536C79.4982 121.724 79.7081 123.066 80.1713 124.329C80.6345 125.592 81.342 126.751 82.2532 127.74C82.9556 128.46 83.497 129.321 83.8417 130.265C84.1864 131.21 84.3266 132.217 84.2529 133.22C84.3289 135.543 83.625 137.824 82.2532 139.7C80.5743 142.116 79.6745 144.988 79.6745 147.93C79.6745 150.873 80.5743 153.744 82.2532 156.16C83.606 158.046 84.3334 160.309 84.3334 162.63C84.3334 164.952 83.606 167.214 82.2532 169.1C80.5743 171.516 79.6745 174.388 79.6745 177.33C79.6745 180.273 80.5743 183.144 82.2532 185.56C83.606 187.446 84.3334 189.709 84.3334 192.03C84.3334 194.352 83.606 196.614 82.2532 198.5C80.5743 200.916 79.6745 203.788 79.6745 206.73C79.6745 209.673 80.5743 212.544 82.2532 214.96C83.606 216.846 84.3334 219.109 84.3334 221.43C84.3334 223.752 83.606 226.014 82.2532 227.9C81.6133 228.58 81.2334 229.24 80.8735 229.94L80.9334 229.86ZM89.4919 232.52C87.6722 232.02 85.8525 231.5 84.0528 230.92C84.2928 230.507 84.5528 230.087 84.8327 229.66C86.5117 227.244 87.4115 224.373 87.4115 221.43C87.4115 218.488 86.5117 215.616 84.8327 213.2C83.48 211.314 82.7525 209.052 82.7525 206.73C82.7525 204.409 83.48 202.146 84.8327 200.26C86.5117 197.844 87.4115 194.973 87.4115 192.03C87.4115 189.088 86.5117 186.216 84.8327 183.8C83.48 181.914 82.7525 179.652 82.7525 177.33C82.7525 175.009 83.48 172.746 84.8327 170.86C86.5117 168.444 87.4115 165.573 87.4115 162.63C87.4115 159.688 86.5117 156.816 84.8327 154.4C83.48 152.514 82.7525 150.252 82.7525 147.93C82.7525 145.609 83.48 143.346 84.8327 141.46C86.5568 139.063 87.4616 136.173 87.4123 133.22C87.4947 131.843 87.298 130.464 86.8341 129.165C86.3702 127.866 85.6487 126.674 84.7128 125.66C84.0332 124.966 83.5047 124.138 83.1605 123.23C82.8164 122.321 82.6641 121.351 82.7131 120.38H89.112C89.2986 122.66 89.981 124.872 91.1116 126.86C92.2735 128.862 92.8551 131.147 92.7914 133.46C92.8515 135.78 92.2702 138.07 91.1116 140.08C89.7605 142.563 89.0527 145.344 89.0527 148.17C89.0527 150.997 89.7605 153.778 91.1116 156.26C92.2735 158.262 92.8551 160.547 92.7914 162.86C92.8515 165.18 92.2702 167.47 91.1116 169.48C89.7605 171.963 89.0527 174.744 89.0527 177.57C89.0527 180.397 89.7605 183.178 91.1116 185.66C92.2142 187.689 92.7919 189.961 92.7919 192.27C92.7919 194.579 92.2142 196.852 91.1116 198.88C89.7605 201.363 89.0527 204.144 89.0527 206.97C89.0527 209.797 89.7605 212.578 91.1116 215.06C92.2142 217.089 92.7919 219.361 92.7919 221.67C92.7919 223.979 92.2142 226.252 91.1116 228.28C90.3544 229.636 89.789 231.089 89.4319 232.6L89.4919 232.52ZM100.15 155.92C101.341 160.511 101.341 165.33 100.15 169.92C98.8173 175.001 98.8173 180.34 100.15 185.42C101.323 189.979 101.323 194.761 100.15 199.32C98.8173 204.401 98.8173 209.74 100.15 214.82C101.341 219.411 101.341 224.23 100.15 228.82C99.6018 230.777 99.2797 232.79 99.1901 234.82C96.9905 234.44 94.8309 233.98 92.6713 233.46C92.9668 232.223 93.4311 231.032 94.051 229.92C95.3899 227.434 96.0908 224.654 96.0908 221.83C96.0908 219.006 95.3899 216.227 94.051 213.74C92.936 211.716 92.3513 209.442 92.3513 207.13C92.3513 204.819 92.936 202.545 94.051 200.52C95.3899 198.034 96.0908 195.254 96.0908 192.43C96.0908 189.606 95.3899 186.827 94.051 184.34C92.936 182.316 92.3513 180.042 92.3513 177.73C92.3513 175.419 92.936 173.145 94.051 171.12C95.3899 168.634 96.0908 165.854 96.0908 163.03C96.0908 160.206 95.3899 157.427 94.051 154.94C92.8756 152.937 92.2867 150.643 92.3514 148.32C92.2829 146.004 92.8722 143.715 94.051 141.72C95.39 139.23 96.0908 136.447 96.0908 133.62C96.0908 130.793 95.39 128.01 94.051 125.52C93.1678 123.992 92.616 122.296 92.4313 120.54H99.1901C99.2662 122.611 99.5885 124.666 100.15 126.66C101.323 131.213 101.323 135.988 100.15 140.54C98.8166 145.628 98.8166 150.973 100.15 156.06V155.92ZM109.248 155.72C109.862 160.461 109.862 165.26 109.248 170C108.609 175.02 108.609 180.101 109.248 185.12C109.862 189.867 109.862 194.673 109.248 199.42C108.609 204.433 108.609 209.507 109.248 214.52C109.862 219.267 109.862 224.073 109.248 228.82C108.926 231.193 108.765 233.586 108.768 235.98C106.649 235.78 104.549 235.54 102.45 235.22C102.506 233.258 102.802 231.311 103.329 229.42C104.636 224.336 104.636 219.004 103.329 213.92C102.129 209.365 102.129 204.576 103.329 200.02C104.636 194.936 104.636 189.604 103.329 184.52C102.129 179.965 102.129 175.176 103.329 170.62C104.636 165.536 104.636 160.204 103.329 155.12C102.112 150.533 102.112 145.708 103.329 141.12C104.636 136.029 104.636 130.691 103.329 125.6C102.841 123.872 102.553 122.094 102.47 120.3H108.789C108.822 122.308 108.975 124.311 109.248 126.3C109.862 131.041 109.862 135.84 109.248 140.58C108.609 145.6 108.609 150.681 109.248 155.7V155.72ZM112.048 236.22C112.033 233.879 112.187 231.54 112.508 229.22C113.148 224.207 113.148 219.133 112.508 214.12C111.895 209.373 111.895 204.567 112.508 199.82C112.854 197.316 113.015 194.789 112.988 192.26C113.016 189.739 112.855 187.218 112.508 184.72C111.895 179.973 111.895 175.167 112.508 170.42C113.148 165.401 113.148 160.32 112.508 155.3C111.895 150.56 111.895 145.761 112.508 141.02C113.148 136.001 113.148 130.92 112.508 125.9C112.251 124.078 112.104 122.241 112.068 120.4H118.387V236.4C116.207 236.52 114.088 236.44 111.988 236.3L112.048 236.22ZM98.9502 117.1H73.3548C74.6151 105.617 80.0687 95.0023 88.6702 87.2919C97.2717 79.5815 108.416 75.3176 119.966 75.3176C131.517 75.3176 142.661 79.5815 151.263 87.2919C159.864 95.0023 165.318 105.617 166.578 117.1H141.043C139.905 112.366 137.208 108.153 133.384 105.139C129.561 102.125 124.835 100.486 119.966 100.486C115.098 100.486 110.372 102.125 106.549 105.139C102.725 108.153 100.028 112.366 98.8903 117.1H98.9502ZM127.545 170.42C128.158 175.167 128.158 179.973 127.545 184.72C127.197 187.218 127.037 189.739 127.065 192.26C127.038 194.789 127.198 197.316 127.545 199.82C128.158 204.567 128.158 209.373 127.545 214.12C126.905 219.133 126.905 224.207 127.545 229.22C127.856 231.527 128.01 233.853 128.005 236.18C125.885 236.32 123.786 236.42 121.646 236.46V120.46H127.965C127.929 122.301 127.782 124.138 127.525 125.96C126.885 130.98 126.885 136.061 127.525 141.08C128.138 145.821 128.138 150.62 127.525 155.36C126.885 160.38 126.885 165.461 127.525 170.48L127.545 170.42ZM136.723 170.62C137.897 175.179 137.897 179.961 136.723 184.52C135.417 189.604 135.417 194.936 136.723 200.02C137.897 204.579 137.897 209.361 136.723 213.92C135.417 219.004 135.417 224.336 136.723 229.42C137.251 231.276 137.54 233.192 137.583 235.12C135.584 235.46 133.404 235.72 131.264 235.92C131.281 233.546 131.127 231.173 130.804 228.82C130.191 224.073 130.191 219.267 130.804 214.52C131.444 209.507 131.444 204.433 130.804 199.42C130.191 194.673 130.191 189.867 130.804 185.12C131.444 180.101 131.444 175.02 130.804 170C130.191 165.26 130.191 160.461 130.804 155.72C131.444 150.701 131.444 145.62 130.804 140.6C130.191 135.86 130.191 131.061 130.804 126.32C131.078 124.331 131.231 122.328 131.264 120.32H137.563C137.495 122.114 137.213 123.893 136.723 125.62C135.417 130.711 135.417 136.049 136.723 141.14C137.914 145.731 137.914 150.55 136.723 155.14C135.417 160.224 135.417 165.556 136.723 170.64V170.62ZM140.843 234.62C140.764 232.591 140.449 230.577 139.903 228.62C138.712 224.03 138.712 219.211 139.903 214.62C141.209 209.536 141.209 204.204 139.903 199.12C138.73 194.561 138.73 189.779 139.903 185.22C141.209 180.136 141.209 174.804 139.903 169.72C138.712 165.13 138.712 160.311 139.903 155.72C141.209 150.636 141.209 145.304 139.903 140.22C138.712 135.63 138.712 130.811 139.903 126.22C140.464 124.226 140.787 122.171 140.863 120.1H141.723H147.721C147.809 121.986 147.244 123.843 146.122 125.36C144.586 127.525 143.838 130.151 144.002 132.8C143.941 135.598 144.632 138.361 146.002 140.8C147.117 142.825 147.702 145.099 147.702 147.41C147.702 149.722 147.117 151.996 146.002 154.02C144.663 156.507 143.962 159.286 143.962 162.11C143.962 164.934 144.663 167.714 146.002 170.2C147.168 172.208 147.757 174.499 147.701 176.82C147.76 179.136 147.172 181.422 146.002 183.42C144.663 185.91 143.962 188.693 143.962 191.52C143.962 194.347 144.663 197.13 146.002 199.62C147.117 201.641 147.702 203.912 147.702 206.22C147.702 208.529 147.117 210.799 146.002 212.82C144.663 215.31 143.962 218.093 143.962 220.92C143.962 223.747 144.663 226.531 146.002 229.02C146.66 230.203 147.139 231.477 147.421 232.8C145.202 233.76 143.002 234.22 140.783 234.62H140.843ZM150.601 232.4C150.254 230.842 149.688 229.34 148.921 227.94C147.819 225.915 147.241 223.646 147.241 221.34C147.241 219.034 147.819 216.765 148.921 214.74C150.272 212.254 150.98 209.47 150.98 206.64C150.98 203.811 150.272 201.026 148.921 198.54C147.819 196.515 147.241 194.246 147.241 191.94C147.241 189.634 147.819 187.365 148.921 185.34C150.272 182.854 150.98 180.07 150.98 177.24C150.98 174.411 150.272 171.626 148.921 169.14C147.759 167.139 147.178 164.854 147.242 162.54C147.181 160.221 147.763 157.93 148.921 155.92C150.272 153.438 150.98 150.657 150.98 147.83C150.98 145.004 150.272 142.223 148.921 139.74C147.759 137.739 147.178 135.454 147.242 133.14C147.087 131.13 147.655 129.13 148.841 127.5C150.295 125.439 151.039 122.961 150.961 120.44H157.2C156.951 122.208 156.263 123.886 155.2 125.32C153.508 127.731 152.599 130.605 152.599 133.55C152.599 136.496 153.508 139.37 155.2 141.78C156.553 143.666 157.28 145.929 157.28 148.25C157.28 150.572 156.553 152.834 155.2 154.72C153.508 157.131 152.599 160.005 152.599 162.95C152.599 165.896 153.508 168.77 155.2 171.18C156.553 173.066 157.28 175.329 157.28 177.65C157.28 179.971 156.553 182.234 155.2 184.12C153.508 186.531 152.599 189.405 152.599 192.35C152.599 195.296 153.508 198.17 155.2 200.58C156.553 202.466 157.28 204.729 157.28 207.05C157.28 209.372 156.553 211.634 155.2 213.52C153.508 215.931 152.599 218.805 152.599 221.75C152.599 224.696 153.508 227.57 155.2 229.98C155.4 230.28 155.54 230.56 155.72 230.86C153.98 231.4 152.261 231.92 150.541 232.4H150.601ZM163.079 228.18C161.699 228.74 160.319 229.28 158.919 229.78C158.619 229.22 158.3 228.7 158 228.22C156.635 226.339 155.901 224.074 155.901 221.75C155.901 219.426 156.635 217.162 158 215.28C159.679 212.864 160.578 209.993 160.578 207.05C160.578 204.108 159.679 201.236 158 198.82C156.635 196.939 155.901 194.674 155.901 192.35C155.901 190.026 156.635 187.762 158 185.88C159.679 183.464 160.578 180.593 160.578 177.65C160.578 174.708 159.679 171.836 158 169.42C156.635 167.539 155.901 165.274 155.901 162.95C155.901 160.626 156.635 158.362 158 156.48C159.679 154.064 160.578 151.193 160.578 148.25C160.578 145.308 159.679 142.436 158 140.02C156.592 138.157 155.853 135.875 155.9 133.54C155.849 131.212 156.59 128.934 158 127.08C159.395 125.121 160.256 122.833 160.499 120.44H166.798C166.461 122.209 165.652 123.853 164.458 125.2C162.422 127.501 161.297 130.467 161.297 133.54C161.297 136.613 162.422 139.58 164.458 141.88C166.039 143.621 166.915 145.889 166.915 148.24C166.915 150.592 166.039 152.859 164.458 154.6C162.424 156.906 161.302 159.875 161.302 162.95C161.302 166.025 162.424 168.995 164.458 171.3C166.042 173.036 166.92 175.301 166.92 177.65C166.92 180 166.042 182.265 164.458 184C162.424 186.306 161.302 189.275 161.302 192.35C161.302 195.425 162.424 198.395 164.458 200.7C166.042 202.436 166.92 204.701 166.92 207.05C166.92 209.4 166.042 211.665 164.458 213.4C162.399 215.687 161.272 218.663 161.299 221.74C161.22 224.01 161.819 226.252 163.019 228.18H163.079ZM166.158 226.9C165.076 225.402 164.52 223.588 164.578 221.74C164.566 219.388 165.453 217.12 167.058 215.4C169.08 213.089 170.195 210.122 170.195 207.05C170.195 203.979 169.08 201.012 167.058 198.7C165.461 196.971 164.575 194.704 164.575 192.35C164.575 189.997 165.461 187.729 167.058 186C169.08 183.689 170.195 180.722 170.195 177.65C170.195 174.579 169.08 171.612 167.058 169.3C165.461 167.571 164.575 165.304 164.575 162.95C164.575 160.597 165.461 158.329 167.058 156.6C169.08 154.289 170.195 151.322 170.195 148.25C170.195 145.179 169.08 142.212 167.058 139.9C165.464 138.166 164.58 135.896 164.58 133.54C164.58 131.185 165.464 128.915 167.058 127.18C168.736 125.287 169.803 122.931 170.117 120.42H236.305C236.186 143.066 229.485 165.189 217.02 184.094C204.555 202.999 186.863 217.872 166.098 226.9H166.158Z" fill="url(#paint0_linear_158_104)"/>
<defs>
<linearGradient id="paint0_linear_158_104" x1="120" y1="0" x2="120" y2="240" gradientUnits="userSpaceOnUse">
<stop stop-color="#DA9483"/>
<stop offset="1" stop-color="#9E66B0"/>
</linearGradient>
</defs>
</svg>
