<svg width="52" height="20" viewBox="0 0 52 20" fill="none" xmlns="http://www.w3.org/2000/svg">
<path d="M18.1157 4.71624L21.4007 1.43127C21.4802 1.35448 21.5436 1.26262 21.5873 1.16105C21.6309 1.05949 21.6539 0.950251 21.6548 0.839715C21.6558 0.729178 21.6347 0.619558 21.5929 0.517249C21.551 0.41494 21.4892 0.321992 21.411 0.243828C21.3329 0.165664 21.2399 0.10385 21.1376 0.061992C21.0353 0.0201341 20.9257 -0.000929098 20.8151 3.14317e-05C20.7046 0.000991962 20.5954 0.023957 20.4938 0.0675865C20.3922 0.111216 20.3004 0.174636 20.2236 0.254147L16.6347 3.83964C15.1071 2.99891 13.3982 2.54182 11.6548 2.50767C5.32799 2.50767 0.36724 9.22413 0.15912 9.5105C0.0557032 9.65276 0 9.82412 0 10C0 10.1759 0.0557032 10.3472 0.15912 10.4895C1.57398 12.3432 3.27328 13.9613 5.19396 15.2838L1.90899 18.5687C1.82948 18.6455 1.76606 18.7374 1.72243 18.8389C1.6788 18.9405 1.65584 19.0497 1.65488 19.1603C1.65392 19.2708 1.67498 19.3804 1.71684 19.4827C1.7587 19.5851 1.82051 19.678 1.89868 19.7562C1.97684 19.8343 2.06979 19.8962 2.1721 19.938C2.27441 19.9799 2.38403 20.0009 2.49456 20C2.6051 19.999 2.71434 19.976 2.8159 19.9324C2.91747 19.8888 3.00933 19.8254 3.08612 19.7459L6.67495 16.1604C8.20255 17.0011 9.91151 17.4582 11.6548 17.4923C17.9817 17.4923 22.9425 10.7759 23.1506 10.4895C23.254 10.3472 23.3097 10.1759 23.3097 10C23.3097 9.82412 23.254 9.65276 23.1506 9.5105C21.7357 7.65682 20.0364 6.03872 18.1157 4.71624ZM1.89318 10C3.11859 8.51569 7.09285 4.17263 11.6548 4.17263C12.9528 4.19888 14.2288 4.51157 15.3919 5.08836L13.9467 6.53355C13.1474 6.00293 12.1892 5.76517 11.2346 5.86061C10.2801 5.95605 9.38789 6.37882 8.70953 7.05718C8.03117 7.73554 7.6084 8.6277 7.51296 9.58229C7.41752 10.5369 7.65528 11.4951 8.1859 12.2943L6.40439 14.0758C4.7085 12.9463 3.18842 11.5729 1.89318 10ZM14.1523 10C14.1523 10.6624 13.8892 11.2976 13.4208 11.766C12.9524 12.2343 12.3172 12.4974 11.6548 12.4974C11.284 12.496 10.9183 12.4106 10.5851 12.2477L13.9025 8.93026C14.0655 9.26342 14.1509 9.62914 14.1523 10ZM9.1574 10C9.1574 9.33764 9.42053 8.7024 9.88889 8.23404C10.3573 7.76568 10.9925 7.50256 11.6548 7.50256C12.0257 7.50399 12.3914 7.58938 12.7246 7.7523L9.40715 11.0697C9.24422 10.7366 9.15884 10.3709 9.1574 10ZM11.6548 15.8274C10.3569 15.8011 9.08085 15.4884 7.91784 14.9116L9.36303 13.4665C10.1623 13.9971 11.1205 14.2348 12.0751 14.1394C13.0296 14.0439 13.9218 13.6212 14.6002 12.9428C15.2785 12.2645 15.7013 11.3723 15.7967 10.4177C15.8922 9.46313 15.6544 8.50492 15.1238 7.70568L16.9053 5.92417C18.6012 7.05368 20.1213 8.42705 21.4165 10C20.1911 11.4843 16.2168 15.8274 11.6548 15.8274Z" fill="#0D134C"/>
<path d="M35 16.1538C35.0012 17.1735 35.4068 18.1511 36.1279 18.8721C36.8489 19.5932 37.8265 19.9988 38.8462 20H48.0769C49.0966 19.9988 50.0742 19.5932 50.7952 18.8721C51.5162 18.1511 51.9219 17.1735 51.9231 16.1538V11.5385C51.922 10.6522 51.6153 9.79332 51.0548 9.10673C50.4944 8.42014 49.7143 7.94777 48.8462 7.76923V5.38462C48.8462 3.95653 48.2788 2.58693 47.269 1.57712C46.2592 0.567306 44.8896 0 43.4615 0C42.0335 0 40.6639 0.567306 39.654 1.57712C38.6442 2.58693 38.0769 3.95653 38.0769 5.38462V7.76923C37.2088 7.94777 36.4287 8.42014 35.8682 9.10673C35.3078 9.79332 35.0011 10.6522 35 11.5385V16.1538ZM39.6154 5.38462C39.6154 4.36455 40.0206 3.38627 40.7419 2.66497C41.4632 1.94368 42.4415 1.53846 43.4615 1.53846C44.4816 1.53846 45.4599 1.94368 46.1812 2.66497C46.9025 3.38627 47.3077 4.36455 47.3077 5.38462V7.69231H39.6154V5.38462ZM36.5385 11.5385C36.5385 10.9264 36.7816 10.3395 37.2144 9.90668C37.6471 9.4739 38.2341 9.23077 38.8462 9.23077H48.0769C48.689 9.23077 49.2759 9.4739 49.7087 9.90668C50.1415 10.3395 50.3846 10.9264 50.3846 11.5385V16.1538C50.3846 16.7659 50.1415 17.3529 49.7087 17.7856C49.2759 18.2184 48.689 18.4615 48.0769 18.4615H38.8462C38.2341 18.4615 37.6471 18.2184 37.2144 17.7856C36.7816 17.3529 36.5385 16.7659 36.5385 16.1538V11.5385Z" fill="black"/>
<path d="M42.7326 14.4223C42.7109 14.4846 42.6977 14.5496 42.6933 14.6154V15.3846C42.6933 15.5886 42.7744 15.7843 42.9186 15.9286C43.0629 16.0728 43.2586 16.1539 43.4626 16.1539C43.6666 16.1539 43.8622 16.0728 44.0065 15.9286C44.1508 15.7843 44.2318 15.5886 44.2318 15.3846V14.6154C44.2274 14.5496 44.2142 14.4846 44.1926 14.4223C44.4939 14.2597 44.7324 14.0011 44.8702 13.6876C45.008 13.3741 45.0373 13.0236 44.9534 12.6916C44.8695 12.3596 44.6772 12.0651 44.4071 11.8547C44.1369 11.6443 43.8042 11.53 43.4618 11.53C43.1194 11.53 42.7867 11.6443 42.5165 11.8547C42.2464 12.0651 42.0541 12.3596 41.9702 12.6916C41.8863 13.0236 41.9156 13.3741 42.0534 13.6876C42.1912 14.0011 42.4297 14.2597 42.731 14.4223H42.7326Z" fill="black"/>
</svg>
