<svg width="647" height="42" viewBox="0 0 647 42" fill="none" xmlns="http://www.w3.org/2000/svg">
<g filter="url(#filter0_d_158_6)">
<path d="M13.279 28H22.779V26.2H15.199V21.66H21.919V19.86H15.199V15.64H22.419V13.84H13.279V28Z" fill="white"/>
<path d="M29.3656 28H31.2856V16.36H31.3256L36.1056 28H37.3856L42.1656 16.36H42.2056V28H44.1256V13.84H41.2656L36.8056 24.56H36.7256L32.2256 13.84H29.3656V28Z" fill="white"/>
<path d="M58.1306 28.36C62.4506 28.36 65.5106 25.12 65.5106 20.92C65.5106 16.72 62.4506 13.48 58.1306 13.48C53.8106 13.48 50.7506 16.72 50.7506 20.92C50.7506 25.12 53.8106 28.36 58.1306 28.36ZM58.1306 26.56C54.8906 26.56 52.7906 24.02 52.7906 20.92C52.7906 17.82 54.8906 15.28 58.1306 15.28C61.3706 15.28 63.4706 17.82 63.4706 20.92C63.4706 24.02 61.3706 26.56 58.1306 26.56Z" fill="white"/>
<path d="M75.2312 28H77.1512V15.64H81.7112V13.84H70.6712V15.64H75.2312V28Z" fill="white"/>
<path d="M87.7556 28H89.6756V13.84H87.7556V28Z" fill="white"/>
<path d="M103.822 28.36C108.142 28.36 111.202 25.12 111.202 20.92C111.202 16.72 108.142 13.48 103.822 13.48C99.502 13.48 96.442 16.72 96.442 20.92C96.442 25.12 99.502 28.36 103.822 28.36ZM103.822 26.56C100.582 26.56 98.482 24.02 98.482 20.92C98.482 17.82 100.582 15.28 103.822 15.28C107.062 15.28 109.162 17.82 109.162 20.92C109.162 24.02 107.062 26.56 103.822 26.56Z" fill="white"/>
<path d="M117.963 28H119.883V16.36H119.923L127.803 28H130.243V13.84H128.323V25.48H128.283L120.483 13.84H117.963V28Z" fill="white"/>
<path d="M136.081 28H138.321L139.721 24.5H146.461L147.881 28H150.121L144.061 13.84H142.321L136.081 28ZM140.401 22.82L143.081 16.32H143.121L145.761 22.82H140.401Z" fill="white"/>
<path d="M155.963 28H164.383V26.2H157.883V13.84H155.963V28Z" fill="white"/>
<path d="M182.86 28H184.78V15.64H189.34V13.84H178.3V15.64H182.86V28Z" fill="white"/>
<path d="M195.384 28H197.304V21.76H199.444L203.044 28H205.444L201.424 21.54C203.564 21.3 204.904 19.6 204.904 17.8C204.904 16.02 203.984 13.84 200.364 13.84H195.384V28ZM197.304 15.52H199.824C201.344 15.52 202.864 15.88 202.864 17.8C202.864 19.72 201.344 20.08 199.824 20.08H197.304V15.52Z" fill="white"/>
<path d="M209.811 28H212.051L213.451 24.5H220.191L221.611 28H223.851L217.791 13.84H216.051L209.811 28ZM214.131 22.82L216.811 16.32H216.851L219.491 22.82H214.131Z" fill="white"/>
<path d="M229.433 13.84V22.82C229.433 26.1 231.813 28.36 234.913 28.36C238.013 28.36 240.393 26.1 240.393 22.82V13.84H238.473V22.52C238.473 24.28 237.593 26.56 234.913 26.56C232.233 26.56 231.353 24.28 231.353 22.52V13.84H229.433Z" fill="white"/>
<path d="M247.635 28H249.555V16.36H249.595L254.375 28H255.655L260.435 16.36H260.475V28H262.395V13.84H259.535L255.075 24.56H254.995L250.495 13.84H247.635V28Z" fill="white"/>
<path d="M268.1 28H270.34L271.74 24.5H278.48L279.9 28H282.14L276.08 13.84H274.34L268.1 28ZM272.42 22.82L275.1 16.32H275.14L277.78 22.82H272.42Z" fill="white"/>
<path d="M306.749 24.7L309.489 20.46H307.309L305.529 23.36L302.729 20.44C304.149 19.7 305.669 18.58 305.669 16.8C305.669 14.66 303.989 13.6 302.009 13.6C299.989 13.6 298.229 14.76 298.229 16.92C298.229 18.3 298.989 19.24 299.889 20.2C298.169 21.02 296.669 22.28 296.669 24.26C296.669 26.32 298.108 28.36 301.309 28.36C303.208 28.36 304.449 27.56 305.649 26.12L307.389 28H309.969L306.749 24.7ZM303.749 16.8C303.749 18.08 302.529 18.76 301.549 19.3C300.929 18.68 300.149 17.88 300.149 16.94C300.149 15.88 301.009 15.28 302.029 15.28C303.029 15.28 303.749 15.86 303.749 16.8ZM304.509 24.88C303.769 25.76 302.749 26.68 301.369 26.68C300.009 26.68 298.709 25.58 298.709 24.2C298.709 22.74 299.948 21.98 301.089 21.32L304.509 24.88Z" fill="white"/>
<path d="M323.749 28H325.989L327.389 24.5H334.129L335.549 28H337.789L331.729 13.84H329.989L323.749 28ZM328.069 22.82L330.749 16.32H330.789L333.429 22.82H328.069Z" fill="white"/>
<path d="M343.311 28H347.931C352.991 28 355.691 24.54 355.691 20.92C355.691 18.3 354.231 13.84 348.251 13.84H343.311V28ZM345.231 15.64H348.111C352.711 15.64 353.651 19.12 353.651 20.92C353.651 24.42 350.891 26.2 347.651 26.2H345.231V15.64Z" fill="white"/>
<path d="M362.135 28H366.755C371.815 28 374.515 24.54 374.515 20.92C374.515 18.3 373.055 13.84 367.075 13.84H362.135V28ZM364.055 15.64H366.935C371.535 15.64 372.475 19.12 372.475 20.92C372.475 24.42 369.715 26.2 366.475 26.2H364.055V15.64Z" fill="white"/>
<path d="M381.279 28H383.199V13.84H381.279V28Z" fill="white"/>
<path d="M402.305 15.68C401.165 14.18 399.205 13.48 397.345 13.48C392.985 13.48 389.965 16.64 389.965 21.04C389.965 24.6 392.745 28.36 397.245 28.36C400.485 28.36 402.185 26.46 402.605 25.88L400.985 24.66C400.145 25.84 398.905 26.56 397.285 26.56C393.985 26.56 392.005 24.02 392.005 21.04C392.005 17.82 394.105 15.28 397.285 15.28C398.585 15.28 399.905 15.86 400.705 16.9L402.305 15.68Z" fill="white"/>
<path d="M411.887 28H413.807V15.64H418.367V13.84H407.327V15.64H411.887V28Z" fill="white"/>
<path d="M424.412 28H426.332V13.84H424.412V28Z" fill="white"/>
<path d="M440.478 28.36C444.798 28.36 447.858 25.12 447.858 20.92C447.858 16.72 444.798 13.48 440.478 13.48C436.158 13.48 433.098 16.72 433.098 20.92C433.098 25.12 436.158 28.36 440.478 28.36ZM440.478 26.56C437.238 26.56 435.138 24.02 435.138 20.92C435.138 17.82 437.238 15.28 440.478 15.28C443.718 15.28 445.818 17.82 445.818 20.92C445.818 24.02 443.718 26.56 440.478 26.56Z" fill="white"/>
<path d="M454.619 28H456.539V16.36H456.579L464.459 28H466.899V13.84H464.979V25.48H464.939L457.139 13.84H454.619V28Z" fill="white"/>
<path d="M487.063 28H488.983V15.64H493.543V13.84H482.503V15.64H487.063V28Z" fill="white"/>
<path d="M499.588 28H501.508V21.76H503.648L507.248 28H509.648L505.628 21.54C507.768 21.3 509.108 19.6 509.108 17.8C509.108 16.02 508.188 13.84 504.568 13.84H499.588V28ZM501.508 15.52H504.028C505.548 15.52 507.068 15.88 507.068 17.8C507.068 19.72 505.548 20.08 504.028 20.08H501.508V15.52Z" fill="white"/>
<path d="M515.814 28H525.314V26.2H517.734V21.66H524.454V19.86H517.734V15.64H524.954V13.84H515.814V28Z" fill="white"/>
<path d="M530.241 28H532.481L533.881 24.5H540.621L542.041 28H544.281L538.221 13.84H536.481L530.241 28ZM534.561 22.82L537.241 16.32H537.281L539.921 22.82H534.561Z" fill="white"/>
<path d="M553.083 28H555.003V15.64H559.563V13.84H548.523V15.64H553.083V28Z" fill="white"/>
<path d="M565.467 28H567.387V16.36H567.427L572.207 28H573.487L578.267 16.36H578.307V28H580.227V13.84H577.367L572.907 24.56H572.827L568.327 13.84H565.467V28Z" fill="white"/>
<path d="M587.732 28H597.232V26.2H589.652V21.66H596.372V19.86H589.652V15.64H596.872V13.84H587.732V28Z" fill="white"/>
<path d="M603.959 28H605.879V16.36H605.919L613.799 28H616.239V13.84H614.319V25.48H614.279L606.479 13.84H603.959V28Z" fill="white"/>
<path d="M626.837 28H628.757V15.64H633.317V13.84H622.277V15.64H626.837V28Z" fill="white"/>
</g>
<defs>
<filter id="filter0_d_158_6" x="0.278992" y="0.47998" width="646.038" height="40.8799" filterUnits="userSpaceOnUse" color-interpolation-filters="sRGB">
<feFlood flood-opacity="0" result="BackgroundImageFix"/>
<feColorMatrix in="SourceAlpha" type="matrix" values="0 0 0 0 0 0 0 0 0 0 0 0 0 0 0 0 0 0 127 0" result="hardAlpha"/>
<feOffset/>
<feGaussianBlur stdDeviation="6.5"/>
<feComposite in2="hardAlpha" operator="out"/>
<feColorMatrix type="matrix" values="0 0 0 0 0 0 0 0 0 0 0 0 0 0 0 0 0 0 0.25 0"/>
<feBlend mode="normal" in2="BackgroundImageFix" result="effect1_dropShadow_158_6"/>
<feBlend mode="normal" in="SourceGraphic" in2="effect1_dropShadow_158_6" result="shape"/>
</filter>
</defs>
</svg>
