<svg width="101" height="100" viewBox="0 0 101 100" fill="none" xmlns="http://www.w3.org/2000/svg">
<path d="M49.895 0.000151233C38.3646 0.0243844 27.1969 4.03303 18.2832 11.3472C9.36953 18.6614 3.25773 28.8316 0.982849 40.1354C-1.29203 51.4392 0.409851 63.1818 5.80025 73.3747C11.1907 83.5676 19.9383 91.5841 30.5617 96.0668C30.6286 96.1067 30.7019 96.1349 30.7783 96.1501C37.6115 98.9988 44.992 100.295 52.3869 99.9438C59.7818 99.5931 67.0065 97.6046 73.5394 94.1219C80.0722 90.6392 85.7502 85.7493 90.1633 79.8052C94.5764 73.8612 97.6144 67.0113 99.0581 59.7502C100.502 52.4891 100.315 44.9981 98.5112 37.818C96.7075 30.6379 93.3319 23.9479 88.6281 18.2311C83.9242 12.5144 78.0096 7.91349 71.3113 4.76072C64.613 1.60794 57.2982 -0.0180559 49.895 0.000151233ZM49.895 1.36682C62.5639 1.39302 74.7229 6.36016 83.7863 15.212C92.8498 24.0638 98.1028 36.1021 98.4283 48.7668H70.7867C70.7867 48.3751 70.7033 47.9918 70.645 47.6085L81.8533 45.4501C81.9431 45.435 82.0289 45.402 82.1058 45.3532C82.1826 45.3044 82.249 45.2407 82.3009 45.1659C82.3528 45.0911 82.3892 45.0067 82.4081 44.9176C82.4269 44.8285 82.4277 44.7366 82.4105 44.6472C82.3932 44.5578 82.3584 44.4727 82.3078 44.397C82.2573 44.3212 82.1921 44.2564 82.1161 44.2062C82.0401 44.156 81.9549 44.1215 81.8654 44.1047C81.7759 44.088 81.684 44.0892 81.595 44.1085L70.3783 46.2668C70.2087 45.5076 69.9944 44.7591 69.7367 44.0251L80.1866 40.1835C80.3499 40.1165 80.4809 39.989 80.5523 39.8277C80.6237 39.6663 80.6298 39.4836 80.5695 39.3177C80.5092 39.1519 80.3872 39.0158 80.2288 38.938C80.0705 38.8602 79.8881 38.8466 79.72 38.9002L69.245 42.7501C68.9609 42.0807 68.641 41.4269 68.2867 40.7918L78.2283 35.2085C78.3073 35.166 78.3768 35.1079 78.4328 35.0379C78.4888 34.9679 78.5301 34.8873 78.5542 34.8009C78.5783 34.7146 78.5848 34.6242 78.5732 34.5353C78.5616 34.4464 78.5321 34.3608 78.4867 34.2835C78.444 34.2047 78.3861 34.1352 78.3163 34.079C78.2465 34.0228 78.1662 33.9811 78.0801 33.9563C77.994 33.9314 77.9038 33.924 77.8148 33.9344C77.7258 33.9448 77.6397 33.9728 77.5617 34.0168L67.5617 39.6585C67.1541 39.0234 66.7117 38.4114 66.2366 37.8252L74.9617 30.4335C75.0738 30.3087 75.1362 30.147 75.1368 29.9793C75.1374 29.8115 75.0763 29.6494 74.9651 29.5237C74.8539 29.3981 74.7004 29.3178 74.5338 29.2981C74.3672 29.2784 74.1991 29.3206 74.0617 29.4168L65.3367 36.7918C64.8298 36.2404 64.2928 35.7174 63.7283 35.2252L70.8283 26.5585C70.94 26.4158 70.9921 26.2353 70.9734 26.055C70.9548 25.8747 70.8669 25.7086 70.7283 25.5918C70.5878 25.4785 70.4081 25.4254 70.2286 25.4442C70.049 25.4629 69.8841 25.5519 69.77 25.6918L62.6783 34.3585C62.0867 33.9085 61.4783 33.5251 60.845 33.1001L66.5617 23.2418C66.6523 23.0849 66.6768 22.8984 66.6299 22.7234C66.583 22.5484 66.4686 22.3991 66.3117 22.3085C66.1542 22.2201 65.9685 22.1968 65.7941 22.2435C65.6197 22.2902 65.4705 22.4032 65.3783 22.5585L59.7117 32.4251C59.095 32.1002 58.4617 31.8085 57.8117 31.5418L61.645 20.8251C61.6833 20.7392 61.7034 20.6462 61.7041 20.5521C61.7048 20.458 61.686 20.3648 61.649 20.2783C61.612 20.1918 61.5575 20.1138 61.4889 20.0493C61.4204 19.9849 61.3392 19.9353 61.2506 19.9036C61.162 19.872 61.0678 19.8589 60.9739 19.8654C60.88 19.8719 60.7884 19.8976 60.705 19.9411C60.6215 19.9846 60.5479 20.0449 60.4889 20.1181C60.4298 20.1914 60.3865 20.276 60.3617 20.3668L56.5283 31.0751C55.8383 30.8511 55.1374 30.662 54.4283 30.5085L56.3784 19.3418C56.4024 19.2503 56.4071 19.1548 56.3923 19.0614C56.3775 18.968 56.3434 18.8787 56.2923 18.7991C56.2412 18.7195 56.1741 18.6514 56.0953 18.5991C56.0164 18.5468 55.9276 18.5114 55.8344 18.4952C55.7412 18.479 55.6457 18.4823 55.5539 18.5049C55.462 18.5276 55.3759 18.569 55.3009 18.6267C55.2259 18.6843 55.1637 18.7569 55.1182 18.8398C55.0728 18.9228 55.0449 19.0143 55.0366 19.1085L53.0867 30.2585C52.3026 30.1425 51.5123 30.073 50.72 30.0501V18.6252C50.72 18.4439 50.648 18.2701 50.5198 18.142C50.3917 18.0138 50.2179 17.9418 50.0366 17.9418C49.8554 17.9418 49.6816 18.0138 49.5535 18.142C49.4253 18.2701 49.3533 18.4439 49.3533 18.6252V30.0501C48.561 30.073 47.7708 30.1425 46.9867 30.2585L45.0366 19.1085C45.0284 19.0143 45.0006 18.9228 44.9551 18.8398C44.9096 18.7569 44.8474 18.6843 44.7724 18.6267C44.6974 18.569 44.6113 18.5276 44.5195 18.5049C44.4276 18.4823 44.3321 18.479 44.2389 18.4952C44.1457 18.5114 44.0569 18.5468 43.978 18.5991C43.8992 18.6514 43.8322 18.7195 43.7811 18.7991C43.7299 18.8787 43.6959 18.968 43.6811 19.0614C43.6662 19.1548 43.671 19.2503 43.695 19.3418L45.6367 30.5085C44.9283 30.6668 44.2283 30.8501 43.545 31.0751L39.7117 20.3668C39.6869 20.276 39.6435 20.1914 39.5844 20.1181C39.5253 20.0449 39.4518 19.9846 39.3683 19.9411C39.2849 19.8976 39.1933 19.8719 39.0995 19.8654C39.0056 19.8589 38.9113 19.872 38.8227 19.9036C38.7341 19.9353 38.653 19.9849 38.5844 20.0493C38.5159 20.1138 38.4614 20.1918 38.4244 20.2783C38.3873 20.3648 38.3685 20.458 38.3692 20.5521C38.3699 20.6462 38.39 20.7392 38.4283 20.8251L42.2617 31.5418C41.6117 31.8085 40.9783 32.1002 40.3617 32.4251L34.695 22.5585C34.6044 22.4005 34.4547 22.2849 34.2789 22.2372C34.1031 22.1896 33.9155 22.2137 33.7575 22.3043C33.5995 22.3949 33.4839 22.5446 33.4363 22.7204C33.3886 22.8962 33.4127 23.0838 33.5033 23.2418L39.17 33.1001C38.5367 33.4918 37.9283 33.9335 37.3367 34.3585L30.245 25.6918C30.1975 25.6044 30.1315 25.5283 30.0516 25.469C29.9717 25.4098 29.8798 25.3686 29.7823 25.3485C29.6849 25.3285 29.5842 25.3299 29.4874 25.3528C29.3905 25.3756 29.2999 25.4194 29.2217 25.4809C29.1436 25.5425 29.0798 25.6204 29.0348 25.7092C28.9899 25.7979 28.9649 25.8955 28.9615 25.9949C28.9582 26.0944 28.9766 26.1933 29.0155 26.2849C29.0544 26.3765 29.1128 26.4585 29.1867 26.5251L36.2866 35.1918C35.7222 35.6841 35.1852 36.2071 34.6783 36.7585L25.945 29.3835C25.8769 29.3254 25.7979 29.2814 25.7127 29.2541C25.6274 29.2268 25.5376 29.2167 25.4484 29.2245C25.3592 29.2323 25.2725 29.2577 25.1932 29.2993C25.1139 29.3409 25.0437 29.3978 24.9867 29.4668C24.9283 29.5356 24.8842 29.6153 24.8567 29.7012C24.8293 29.7871 24.8192 29.8776 24.827 29.9675C24.8347 30.0574 24.8602 30.1448 24.9019 30.2248C24.9436 30.3048 25.0008 30.3757 25.07 30.4335L33.7783 37.7918C33.3032 38.3781 32.8609 38.9901 32.4533 39.6251L22.395 34.0168C22.2356 33.9298 22.0483 33.909 21.8737 33.9589C21.6991 34.0088 21.5511 34.1254 21.4617 34.2835C21.3744 34.4407 21.3526 34.6259 21.4009 34.799C21.4493 34.9722 21.5639 35.1193 21.72 35.2085L31.72 40.8335C31.3657 41.4686 31.0457 42.1223 30.7616 42.7918L20.2866 38.9418C20.2015 38.9069 20.1101 38.8895 20.0181 38.8908C19.926 38.892 19.8352 38.9119 19.751 38.9491C19.6668 38.9863 19.591 39.0402 19.5281 39.1075C19.4653 39.1747 19.4166 39.254 19.3852 39.3405C19.3537 39.427 19.34 39.519 19.345 39.611C19.35 39.7029 19.3735 39.7929 19.4141 39.8755C19.4547 39.9581 19.5116 40.0317 19.5813 40.0917C19.6511 40.1518 19.7323 40.1972 19.82 40.2251L30.27 44.0668C30.0095 44.8006 29.7925 45.5491 29.62 46.3085L18.4033 44.1501C18.2273 44.1204 18.0466 44.1607 17.8999 44.2625C17.7532 44.3643 17.6522 44.5194 17.6185 44.6947C17.5847 44.87 17.6209 45.0516 17.7193 45.2006C17.8177 45.3495 17.9705 45.4541 18.145 45.4918L29.3617 47.6502C29.3033 48.0335 29.2533 48.4335 29.2117 48.8251H1.47833C1.41226 48.8125 1.34441 48.8125 1.27834 48.8251C1.58925 36.1358 6.84722 24.0704 15.9302 15.2038C25.0132 6.33727 37.2018 1.37171 49.895 1.36682ZM30.7283 94.6001C22.0234 90.8578 14.6 84.6562 9.36865 76.7559C4.13733 68.8557 1.32559 59.6003 1.27834 50.1251C1.35287 50.137 1.42879 50.137 1.50333 50.1251H29.145C29.2813 51.1647 29.7254 52.1398 30.42 52.9251C31.0788 53.6505 31.4438 54.5953 31.4438 55.5751C31.4438 56.555 31.0788 57.4998 30.42 58.2251C29.5772 59.1883 29.1127 60.4245 29.1127 61.7043C29.1127 62.9841 29.5772 64.2204 30.42 65.1835C31.08 65.9066 31.4459 66.8503 31.4459 67.8293C31.4459 68.8083 31.08 69.752 30.42 70.4751C29.5772 71.4383 29.1127 72.6745 29.1127 73.9543C29.1127 75.2341 29.5772 76.4704 30.42 77.4335C31.08 78.1566 31.4459 79.1003 31.4459 80.0793C31.4459 81.0583 31.08 82.002 30.42 82.7251C29.5772 83.6883 29.1127 84.9245 29.1127 86.2043C29.1127 87.4841 29.5772 88.7204 30.42 89.6835C31.0865 90.4008 31.4533 91.346 31.445 92.3251C31.5091 93.1476 31.2523 93.9629 30.7283 94.6001ZM33.7283 95.7751C33.1533 95.5668 32.5866 95.3501 32.0616 95.1335C32.6156 94.3173 32.8904 93.3438 32.845 92.3585C32.8586 91.0773 32.3918 89.8375 31.5366 88.8835C30.8767 88.1603 30.5108 87.2167 30.5108 86.2376C30.5108 85.2586 30.8767 84.3149 31.5366 83.5918C32.3794 82.6287 32.844 81.3924 32.844 80.1126C32.844 78.8329 32.3794 77.5966 31.5366 76.6335C30.8767 75.9103 30.5108 74.9667 30.5108 73.9876C30.5108 73.0086 30.8767 72.0649 31.5366 71.3418C32.3794 70.3787 32.844 69.1424 32.844 67.8626C32.844 66.5829 32.3794 65.3466 31.5366 64.3835C30.8779 63.6581 30.5129 62.7134 30.5129 61.7335C30.5129 60.7536 30.8779 59.8089 31.5366 59.0835C32.3804 58.1225 32.8458 56.8873 32.8458 55.6085C32.8458 54.3296 32.3804 53.0945 31.5366 52.1335C31.0404 51.5745 30.7036 50.8923 30.5617 50.1585H33.1533C33.1302 50.7185 33.2177 51.2775 33.4107 51.8037C33.6038 52.3299 33.8986 52.8129 34.2783 53.2251C34.571 53.525 34.7967 53.8836 34.9403 54.2773C35.084 54.6709 35.1424 55.0906 35.1117 55.5085C35.1434 56.4763 34.85 57.4269 34.2783 58.2085C33.5787 59.2151 33.2037 60.4117 33.2037 61.6376C33.2037 62.8636 33.5787 64.0602 34.2783 65.0668C34.8421 65.8527 35.1452 66.7955 35.1452 67.7626C35.1452 68.7298 34.8421 69.6726 34.2783 70.4585C33.5787 71.4651 33.2037 72.6617 33.2037 73.8876C33.2037 75.1136 33.5787 76.3102 34.2783 77.3168C34.8421 78.1027 35.1452 79.0455 35.1452 80.0126C35.1452 80.9798 34.8421 81.9226 34.2783 82.7085C33.5787 83.7151 33.2037 84.9117 33.2037 86.1376C33.2037 87.3636 33.5787 88.5602 34.2783 89.5668C34.8421 90.3527 35.1452 91.2955 35.1452 92.2626C35.1452 93.2298 34.8421 94.1726 34.2783 94.9585C34.0117 95.2418 33.8533 95.5168 33.7033 95.8085L33.7283 95.7751ZM37.295 96.8835C36.5367 96.6751 35.7783 96.4585 35.0283 96.2168C35.1283 96.0446 35.2367 95.8696 35.3533 95.6918C36.053 94.6852 36.428 93.4886 36.428 92.2626C36.428 91.0367 36.053 89.8401 35.3533 88.8335C34.7896 88.0476 34.4864 87.1048 34.4864 86.1376C34.4864 85.1705 34.7896 84.2277 35.3533 83.4418C36.053 82.4352 36.428 81.2386 36.428 80.0126C36.428 78.7867 36.053 77.5901 35.3533 76.5835C34.7896 75.7976 34.4864 74.8548 34.4864 73.8876C34.4864 72.9205 34.7896 71.9777 35.3533 71.1918C36.053 70.1852 36.428 68.9886 36.428 67.7626C36.428 66.5367 36.053 65.3401 35.3533 64.3335C34.7896 63.5476 34.4864 62.6048 34.4864 61.6376C34.4864 60.6705 34.7896 59.7277 35.3533 58.9418C36.0718 57.9429 36.4489 56.7388 36.4284 55.5085C36.4627 54.9347 36.3807 54.3599 36.1874 53.8186C35.994 53.2773 35.6933 52.7807 35.3033 52.3585C35.0201 52.0691 34.7999 51.7243 34.6565 51.3457C34.513 50.9671 34.4495 50.5628 34.47 50.1585H37.1367C37.2144 51.1084 37.4988 52.0299 37.97 52.8585C38.4542 53.6924 38.6966 54.6446 38.67 55.6085C38.6951 56.5748 38.4528 57.5293 37.97 58.3668C37.4069 59.4011 37.1119 60.56 37.1119 61.7376C37.1119 62.9153 37.4069 64.0742 37.97 65.1085C38.4542 65.9424 38.6966 66.8946 38.67 67.8585C38.6951 68.8248 38.4528 69.7793 37.97 70.6168C37.4069 71.6511 37.1119 72.81 37.1119 73.9876C37.1119 75.1653 37.4069 76.3242 37.97 77.3585C38.4295 78.2037 38.6702 79.1506 38.6702 80.1126C38.6702 81.0747 38.4295 82.0215 37.97 82.8668C37.4069 83.9011 37.1119 85.06 37.1119 86.2376C37.1119 87.4153 37.4069 88.5742 37.97 89.6085C38.4295 90.4537 38.6702 91.4006 38.6702 92.3626C38.6702 93.3247 38.4295 94.2715 37.97 95.1168C37.6544 95.6815 37.4188 96.2873 37.27 96.9168L37.295 96.8835ZM41.7367 64.9668C42.2328 66.8796 42.2328 68.8874 41.7367 70.8001C41.1813 72.9171 41.1813 75.1415 41.7367 77.2585C42.2257 79.1581 42.2257 81.1506 41.7367 83.0501C41.1813 85.1671 41.1813 87.3915 41.7367 89.5085C42.2328 91.4213 42.2328 93.429 41.7367 95.3418C41.5082 96.1571 41.374 96.9959 41.3366 97.8418C40.42 97.6835 39.52 97.4918 38.62 97.2751C38.7431 96.7594 38.9366 96.2631 39.195 95.8001C39.753 94.7642 40.045 93.606 40.045 92.4293C40.045 91.2527 39.753 90.0944 39.195 89.0585C38.7303 88.2149 38.4866 87.2674 38.4866 86.3043C38.4866 85.3412 38.7303 84.3937 39.195 83.5501C39.753 82.5142 40.045 81.356 40.045 80.1793C40.045 79.0027 39.753 77.8444 39.195 76.8085C38.7303 75.9649 38.4866 75.0174 38.4866 74.0543C38.4866 73.0912 38.7303 72.1437 39.195 71.3001C39.753 70.2642 40.045 69.106 40.045 67.9293C40.045 66.7527 39.753 65.5944 39.195 64.5585C38.7051 63.7235 38.4597 62.7678 38.4867 61.8001C38.4581 60.835 38.7037 59.8814 39.195 59.0501C39.753 58.0127 40.045 56.8531 40.045 55.6751C40.045 54.4972 39.753 53.3376 39.195 52.3001C38.8269 51.6635 38.5969 50.9565 38.52 50.2251H41.3366C41.3684 51.088 41.5027 51.944 41.7367 52.7751C42.2257 54.6719 42.2257 56.6617 41.7367 58.5585C41.181 60.6782 41.181 62.9054 41.7367 65.0251V64.9668ZM45.5283 64.8835C45.7839 66.8586 45.7839 68.8584 45.5283 70.8335C45.2617 72.925 45.2617 75.0419 45.5283 77.1335C45.7839 79.1114 45.7839 81.1139 45.5283 83.0918C45.2617 85.1806 45.2617 87.2947 45.5283 89.3835C45.7839 91.3614 45.7839 93.3639 45.5283 95.3418C45.3939 96.3305 45.3271 97.3273 45.3283 98.3251C44.445 98.2418 43.57 98.1418 42.695 98.0085C42.7186 97.191 42.8417 96.3795 43.0617 95.5918C43.606 93.4734 43.606 91.2518 43.0617 89.1335C42.5616 87.2353 42.5616 85.24 43.0617 83.3418C43.606 81.2234 43.606 79.0018 43.0617 76.8835C42.5616 74.9853 42.5616 72.99 43.0617 71.0918C43.606 68.9734 43.606 66.7518 43.0617 64.6335C42.5542 62.7221 42.5542 60.7115 43.0617 58.8001C43.606 56.679 43.606 54.4547 43.0617 52.3335C42.8583 51.6135 42.7381 50.8725 42.7033 50.1251H45.3367C45.3505 50.9616 45.4145 51.7964 45.5283 52.6251C45.7839 54.6002 45.7839 56.6 45.5283 58.5751C45.2617 60.6667 45.2617 62.7836 45.5283 64.8751V64.8835ZM46.695 98.4251C46.6887 97.4496 46.7528 96.4748 46.8867 95.5085C47.1533 93.4197 47.1533 91.3055 46.8867 89.2168C46.6311 87.2389 46.6311 85.2364 46.8867 83.2585C47.0311 82.2149 47.0979 81.162 47.0867 80.1085C47.0984 79.0577 47.0315 78.0076 46.8867 76.9668C46.6311 74.9889 46.6311 72.9864 46.8867 71.0085C47.1533 68.9169 47.1533 66.8 46.8867 64.7085C46.6311 62.7334 46.6311 60.7336 46.8867 58.7585C47.1533 56.6669 47.1533 54.55 46.8867 52.4585C46.7796 51.699 46.7184 50.9337 46.7033 50.1668H49.3367V98.5001C48.4283 98.5501 47.545 98.5168 46.67 98.4585L46.695 98.4251ZM41.2367 48.7918H30.57C31.0952 44.007 33.3679 39.5843 36.9525 36.3716C40.5372 33.1589 45.1814 31.3823 49.995 31.3823C54.8086 31.3823 59.4528 33.1589 63.0374 36.3716C66.622 39.5843 68.8948 44.007 69.42 48.7918H58.7783C58.3043 46.8192 57.1801 45.0636 55.5868 43.8077C53.9934 42.5519 52.0238 41.869 49.995 41.869C47.9662 41.869 45.9965 42.5519 44.4032 43.8077C42.8099 45.0636 41.6857 46.8192 41.2117 48.7918H41.2367ZM53.1533 71.0085C53.4089 72.9864 53.4089 74.9889 53.1533 76.9668C53.0085 78.0076 52.9416 79.0577 52.9533 80.1085C52.942 81.162 53.0089 82.2149 53.1533 83.2585C53.4089 85.2364 53.4089 87.2389 53.1533 89.2168C52.8867 91.3055 52.8867 93.4197 53.1533 95.5085C53.2831 96.4697 53.3472 97.4386 53.345 98.4085C52.4617 98.4668 51.5867 98.5085 50.695 98.5251V50.1918H53.3283C53.3133 50.9587 53.2521 51.724 53.145 52.4835C52.8784 54.575 52.8784 56.6919 53.145 58.7835C53.4006 60.7586 53.4006 62.7584 53.145 64.7335C52.8784 66.825 52.8784 68.9419 53.145 71.0335L53.1533 71.0085ZM56.9783 71.0918C57.4673 72.9914 57.4673 74.9839 56.9783 76.8835C56.434 79.0018 56.434 81.2234 56.9783 83.3418C57.4673 85.2414 57.4673 87.2339 56.9783 89.1335C56.434 91.2518 56.434 93.4734 56.9783 95.5918C57.1981 96.3651 57.3185 97.1631 57.3367 97.9668C56.5033 98.1085 55.595 98.2168 54.7033 98.3001C54.7102 97.3107 54.6462 96.3221 54.5116 95.3418C54.2561 93.3639 54.2561 91.3614 54.5116 89.3835C54.7783 87.2947 54.7783 85.1806 54.5116 83.0918C54.2561 81.1139 54.2561 79.1114 54.5116 77.1335C54.7783 75.0419 54.7783 72.925 54.5116 70.8335C54.2561 68.8584 54.2561 66.8586 54.5116 64.8835C54.7783 62.7919 54.7783 60.675 54.5116 58.5835C54.2561 56.6084 54.2561 54.6086 54.5116 52.6335C54.6255 51.8047 54.6895 50.9699 54.7033 50.1335H57.3283C57.2998 50.8809 57.1824 51.6222 56.9783 52.3418C56.434 54.463 56.434 56.6873 56.9783 58.8085C57.4745 60.7213 57.4745 62.729 56.9783 64.6418C56.434 66.7602 56.434 68.9818 56.9783 71.1001V71.0918ZM58.695 97.7585C58.6622 96.9127 58.5307 96.0737 58.3034 95.2585C57.8072 93.3457 57.8072 91.3379 58.3034 89.4251C58.8477 87.3068 58.8477 85.0852 58.3034 82.9668C57.8144 81.0672 57.8144 79.0747 58.3034 77.1751C58.8477 75.0568 58.8477 72.8352 58.3034 70.7168C57.8072 68.804 57.8072 66.7963 58.3034 64.8835C58.8477 62.7651 58.8477 60.5435 58.3034 58.4251C57.8072 56.5123 57.8072 54.5046 58.3034 52.5918C58.5374 51.7607 58.6716 50.9047 58.7033 50.0418H59.0617H61.5617C61.5983 50.8273 61.3628 51.6014 60.895 52.2335C60.2551 53.1356 59.9434 54.2296 60.0117 55.3335C59.9863 56.4991 60.274 57.6503 60.845 58.6668C61.3097 59.5104 61.5534 60.4579 61.5534 61.421C61.5534 62.3841 61.3097 63.3316 60.845 64.1751C60.287 65.2111 59.9949 66.3693 59.9949 67.546C59.9949 68.7226 60.287 69.8809 60.845 70.9168C61.3312 71.7533 61.5763 72.7079 61.5533 73.6751C61.5778 74.6399 61.3325 75.5923 60.845 76.4251C60.287 77.4626 59.9949 78.6222 59.9949 79.8001C59.9949 80.9781 60.287 82.1377 60.845 83.1751C61.3097 84.0172 61.5534 84.9633 61.5534 85.9251C61.5534 86.8869 61.3097 87.8331 60.845 88.6751C60.287 89.7126 59.9949 90.8722 59.9949 92.0501C59.9949 93.2281 60.287 94.3877 60.845 95.4251C61.1194 95.9178 61.3188 96.4487 61.4366 97.0001C60.5116 97.4001 59.595 97.5918 58.67 97.7585H58.695ZM62.7617 96.8335C62.6171 96.1841 62.3814 95.5585 62.0616 94.9751C61.6021 94.1314 61.3614 93.1859 61.3614 92.2251C61.3614 91.2644 61.6021 90.3189 62.0616 89.4751C62.6247 88.4393 62.9197 87.2791 62.9197 86.1001C62.9197 84.9212 62.6247 83.761 62.0616 82.7251C61.6021 81.8814 61.3614 80.9359 61.3614 79.9751C61.3614 79.0144 61.6021 78.0689 62.0616 77.2251C62.6247 76.1893 62.9197 75.0291 62.9197 73.8502C62.9197 72.6712 62.6247 71.511 62.0616 70.4751C61.5775 69.6413 61.3351 68.689 61.3617 67.7251C61.3366 66.7588 61.5788 65.8043 62.0616 64.9668C62.6247 63.9325 62.9197 62.7736 62.9197 61.596C62.9197 60.4183 62.6247 59.2595 62.0616 58.2251C61.5775 57.3913 61.3351 56.439 61.3617 55.4751C61.2974 54.6375 61.5338 53.8043 62.0283 53.1252C62.6342 52.2665 62.9443 51.2339 62.9117 50.1835H65.5117C65.4079 50.9202 65.1214 51.6192 64.6783 52.2168C63.9729 53.2212 63.5945 54.4187 63.5945 55.646C63.5945 56.8733 63.9729 58.0708 64.6783 59.0751C65.2421 59.861 65.5453 60.8038 65.5453 61.771C65.5453 62.7381 65.2421 63.6809 64.6783 64.4668C63.9729 65.4712 63.5945 66.6687 63.5945 67.896C63.5945 69.1233 63.9729 70.3208 64.6783 71.3251C65.2421 72.111 65.5453 73.0538 65.5453 74.021C65.5453 74.9881 65.2421 75.9309 64.6783 76.7168C63.9729 77.7212 63.5945 78.9187 63.5945 80.146C63.5945 81.3733 63.9729 82.5708 64.6783 83.5751C65.2421 84.361 65.5453 85.3038 65.5453 86.271C65.5453 87.2381 65.2421 88.1809 64.6783 88.9668C63.9729 89.9712 63.5945 91.1686 63.5945 92.396C63.5945 93.6233 63.9729 94.8208 64.6783 95.8251C64.7617 95.9501 64.82 96.0668 64.895 96.1918C64.17 96.4168 63.4533 96.6335 62.7366 96.8335H62.7617ZM67.9617 95.0751C67.3867 95.3085 66.8116 95.5335 66.2283 95.7418C66.1033 95.5085 65.97 95.2918 65.845 95.0918C65.2765 94.3079 64.9703 93.3643 64.9703 92.396C64.9703 91.4276 65.2765 90.484 65.845 89.7001C66.5447 88.6935 66.9197 87.4969 66.9197 86.271C66.9197 85.0451 66.5447 83.8485 65.845 82.8418C65.2765 82.0579 64.9703 81.1143 64.9703 80.146C64.9703 79.1776 65.2765 78.234 65.845 77.4501C66.5447 76.4435 66.9197 75.2469 66.9197 74.021C66.9197 72.795 66.5447 71.5985 65.845 70.5918C65.2765 69.8079 64.9703 68.8643 64.9703 67.896C64.9703 66.9276 65.2765 65.984 65.845 65.2001C66.5447 64.1935 66.9197 62.9969 66.9197 61.771C66.9197 60.545 66.5447 59.3485 65.845 58.3418C65.2585 57.5656 64.9503 56.6145 64.97 55.6418C64.9489 54.6715 65.2574 53.7226 65.845 52.9501C66.4264 52.1339 66.7854 51.1805 66.8867 50.1835H69.5116C69.3711 50.9203 69.0343 51.6055 68.5367 52.1668C67.6878 53.1254 67.2192 54.3615 67.2192 55.6418C67.2192 56.9222 67.6878 58.1583 68.5367 59.1168C69.1954 59.8422 69.5604 60.7869 69.5604 61.7668C69.5604 62.7467 69.1954 63.6914 68.5367 64.4168C67.6889 65.3775 67.2211 66.6147 67.2211 67.896C67.2211 69.1772 67.6889 70.4144 68.5367 71.3751C69.1966 72.0983 69.5625 73.042 69.5625 74.021C69.5625 75 69.1966 75.9437 68.5367 76.6668C67.6889 77.6275 67.2211 78.8647 67.2211 80.146C67.2211 81.4272 67.6889 82.6644 68.5367 83.6251C69.1966 84.3483 69.5625 85.292 69.5625 86.271C69.5625 87.25 69.1966 88.1937 68.5367 88.9168C67.6785 89.8696 67.2087 91.1096 67.22 92.3918C67.1872 93.3376 67.4367 94.2717 67.9367 95.0751H67.9617ZM69.245 94.5418C68.7939 93.9176 68.5624 93.1616 68.5867 92.3918C68.5815 91.4117 68.9512 90.4666 69.62 89.7501C70.4627 88.787 70.9273 87.5508 70.9273 86.271C70.9273 84.9912 70.4627 83.7549 69.62 82.7918C68.9547 82.0713 68.5852 81.1266 68.5852 80.146C68.5852 79.1653 68.9547 78.2206 69.62 77.5001C70.4627 76.537 70.9273 75.3007 70.9273 74.021C70.9273 72.7412 70.4627 71.5049 69.62 70.5418C68.9547 69.8213 68.5852 68.8767 68.5852 67.896C68.5852 66.9153 68.9547 65.9706 69.62 65.2501C70.4627 64.287 70.9273 63.0508 70.9273 61.771C70.9273 60.4912 70.4627 59.2549 69.62 58.2918C68.9559 57.5691 68.5874 56.6233 68.5874 55.6418C68.5874 54.6603 68.9559 53.7146 69.62 52.9918C70.3194 52.203 70.7639 51.2212 70.895 50.1752H98.4783C98.4284 59.6109 95.6361 68.8286 90.4414 76.7058C85.2466 84.583 77.8735 90.7799 69.22 94.5418H69.245Z" fill="#D89582"/>
</svg>
